# xmcd
#
# Track frame offsets:
#	150
#	21495
#	47767
#	61752
#	85427
#	102142
#	116910
#	134847
#
# Disc length: 2128 seconds
#
# Revision: 0
# Processed by: cddbd v1.5.1PL2 Copyright (c) Steve Scherf et al.
# Submitted via: VUPlayer 2.43
#
DISCID=72084e08
DTITLE=Various Artist - Clawfist Peel Sesions
DYEAR=1991
DGENRE=Rock
TTITLE0=Gallon Drunk - Ruby
TTITLE1=Gallon Drunk - Some Fools Mess
TTITLE2=Gallon Drunk - Drag 91
TTITLE3=Gallon Drunk - Two Wings Mambo
TTITLE4=Breed - Splinter
TTITLE5=Breed - Perfect Hangover
TTITLE6=Breed - Pendulum
TTITLE7=Breed - Hard Cash
EXTD=YEAR: 1991 ID3G: 13
EXTT0=
EXTT1=
EXTT2=
EXTT3=
EXTT4=
EXTT5=
EXTT6=
EXTT7=
PLAYORDER=
